<svg width="200" height="200" viewBox="0 0 200 200" fill="none" xmlns="http://www.w3.org/2000/svg">
<path d="M93.6787 1.39551L12.9716 45.6751C9.6005 47.5357 6.87256 52.1431 6.87256 55.9752V144.025C6.87256 147.857 9.6005 152.486 12.9716 154.325L93.6787 198.604C97.05 200.465 102.528 200.465 105.899 198.604L186.607 154.325C189.978 152.464 192.706 147.857 192.706 144.025V55.9752C192.706 52.1431 189.978 47.5136 186.607 45.6751L105.899 1.39551C104.214 0.465169 101.996 0 99.8 0C97.5825 0 95.3644 0.465169 93.6787 1.39551Z" fill="#F4717F"/>
<path d="M138.382 93.4501L130.919 84.9376V93.4501H125.257V65.8501H130.919V82.6126L138.044 74.4751H144.832L136.769 83.5876L145.319 93.4501H138.382Z" fill="white"/>
<path fill-rule="evenodd" clip-rule="evenodd" d="M71.3948 79.6501C72.9448 80.1001 74.1448 80.8876 74.9948 82.0126C75.8448 83.1376 76.2698 84.5126 76.2698 86.1376C76.2698 88.3876 75.4323 90.1751 73.7573 91.5001C72.0823 92.8001 69.8073 93.4501 66.9323 93.4501H54.2573V66.7501H66.5573C69.3323 66.7501 71.5198 67.3751 73.1198 68.6251C74.7448 69.8501 75.5573 71.5376 75.5573 73.6876C75.5573 75.0876 75.1823 76.3126 74.4323 77.3626C73.7073 78.4126 72.6948 79.1751 71.3948 79.6501ZM59.9573 77.6251H65.5823C67.0823 77.6251 68.1948 77.3751 68.9198 76.8751C69.6698 76.3501 70.0448 75.5501 70.0448 74.4751C70.0448 73.3751 69.6698 72.5626 68.9198 72.0376C68.1948 71.5126 67.0823 71.2501 65.5823 71.2501H59.9573V77.6251ZM66.2573 88.9501C67.8323 88.9501 68.9698 88.6876 69.6698 88.1626C70.3948 87.6126 70.7573 86.7501 70.7573 85.5751C70.7573 84.3751 70.3948 83.5001 69.6698 82.9501C68.9698 82.4001 67.8323 82.1251 66.2573 82.1251H59.9573V88.9501H66.2573Z" fill="white"/>
<path fill-rule="evenodd" clip-rule="evenodd" d="M89.0682 93.7501C87.0432 93.7501 85.2682 93.3501 83.7432 92.5501C82.2432 91.7501 81.0807 90.6001 80.2557 89.1001C79.4557 87.6001 79.0557 85.8501 79.0557 83.8501C79.0557 81.8501 79.4557 80.1001 80.2557 78.6001C81.0807 77.1001 82.2432 75.9501 83.7432 75.1501C85.2682 74.3501 87.0432 73.9501 89.0682 73.9501C91.0682 73.9501 92.8182 74.3501 94.3182 75.1501C95.8182 75.9501 96.9682 77.1001 97.7682 78.6001C98.5932 80.1001 99.0057 81.8501 99.0057 83.8501C99.0057 85.8501 98.5932 87.6001 97.7682 89.1001C96.9682 90.6001 95.8182 91.7501 94.3182 92.5501C92.8182 93.3501 91.0682 93.7501 89.0682 93.7501ZM89.0682 89.4376C90.4682 89.4376 91.5307 88.9751 92.2557 88.0501C93.0057 87.1251 93.3807 85.7251 93.3807 83.8501C93.3807 82.0001 93.0057 80.6126 92.2557 79.6876C91.5307 78.7376 90.4682 78.2626 89.0682 78.2626C87.6432 78.2626 86.5557 78.7376 85.8057 79.6876C85.0557 80.6126 84.6807 82.0001 84.6807 83.8501C84.6807 87.5751 86.1432 89.4376 89.0682 89.4376Z" fill="white"/>
<path fill-rule="evenodd" clip-rule="evenodd" d="M106.375 92.5501C107.9 93.3501 109.675 93.7501 111.7 93.7501C113.7 93.7501 115.45 93.3501 116.95 92.5501C118.45 91.7501 119.6 90.6001 120.4 89.1001C121.225 87.6001 121.638 85.8501 121.638 83.8501C121.638 81.8501 121.225 80.1001 120.4 78.6001C119.6 77.1001 118.45 75.9501 116.95 75.1501C115.45 74.3501 113.7 73.9501 111.7 73.9501C109.675 73.9501 107.9 74.3501 106.375 75.1501C104.875 75.9501 103.713 77.1001 102.888 78.6001C102.088 80.1001 101.688 81.8501 101.688 83.8501C101.688 85.8501 102.088 87.6001 102.888 89.1001C103.713 90.6001 104.875 91.7501 106.375 92.5501ZM114.888 88.0501C114.163 88.9751 113.1 89.4376 111.7 89.4376C108.775 89.4376 107.313 87.5751 107.313 83.8501C107.313 82.0001 107.688 80.6126 108.438 79.6876C109.188 78.7376 110.275 78.2626 111.7 78.2626C113.1 78.2626 114.163 78.7376 114.888 79.6876C115.638 80.6126 116.013 82.0001 116.013 83.8501C116.013 85.7251 115.638 87.1251 114.888 88.0501Z" fill="white"/>
<path fill-rule="evenodd" clip-rule="evenodd" d="M163.231 133.85H157.643V131.037C157.068 132.013 156.256 132.775 155.206 133.325C154.156 133.875 152.968 134.15 151.643 134.15C150.018 134.15 148.568 133.738 147.293 132.913C146.018 132.062 145.018 130.888 144.293 129.388C143.593 127.863 143.243 126.125 143.243 124.175C143.243 122.225 143.593 120.513 144.293 119.038C145.018 117.538 146.006 116.388 147.256 115.588C148.531 114.763 149.993 114.35 151.643 114.35C152.918 114.35 154.081 114.625 155.131 115.175C156.181 115.7 156.993 116.438 157.568 117.388V106.25H163.231V133.85ZM153.293 129.837C154.693 129.837 155.768 129.363 156.518 128.413C157.268 127.438 157.643 126.05 157.643 124.25C157.643 122.475 157.256 121.112 156.481 120.162C155.731 119.187 154.668 118.7 153.293 118.7C151.893 118.7 150.806 119.175 150.031 120.125C149.256 121.075 148.868 122.425 148.868 124.175C148.868 125.975 149.256 127.375 150.031 128.375C150.806 129.35 151.893 129.837 153.293 129.837Z" fill="white"/>
<path fill-rule="evenodd" clip-rule="evenodd" d="M92.5637 122.413C91.7137 121.288 90.5137 120.5 88.9637 120.05C90.2637 119.575 91.2762 118.812 92.0012 117.763C92.7512 116.712 93.1262 115.488 93.1262 114.088C93.1262 111.938 92.3137 110.25 90.6887 109.025C89.0887 107.775 86.9012 107.15 84.1262 107.15H71.8262V133.85H84.5012C87.3762 133.85 89.6512 133.2 91.3262 131.9C93.0012 130.575 93.8387 128.787 93.8387 126.537C93.8387 124.912 93.4137 123.538 92.5637 122.413ZM83.1512 118.025H77.5262V111.65H83.1512C84.6512 111.65 85.7637 111.912 86.4887 112.438C87.2387 112.962 87.6137 113.775 87.6137 114.875C87.6137 115.95 87.2387 116.75 86.4887 117.275C85.7637 117.775 84.6512 118.025 83.1512 118.025ZM87.2387 128.563C86.5387 129.088 85.4012 129.35 83.8262 129.35H77.5262V122.525H83.8262C85.4012 122.525 86.5387 122.8 87.2387 123.35C87.9637 123.9 88.3262 124.775 88.3262 125.975C88.3262 127.15 87.9637 128.013 87.2387 128.563Z" fill="white"/>
<path fill-rule="evenodd" clip-rule="evenodd" d="M56.3337 133.85V114.838H50.7462V117.537C50.1712 116.562 49.3587 115.787 48.3087 115.212C47.2587 114.637 46.0712 114.35 44.7462 114.35C43.1212 114.35 41.6712 114.775 40.3962 115.625C39.1212 116.45 38.1212 117.625 37.3962 119.15C36.6962 120.675 36.3462 122.413 36.3462 124.363C36.3462 126.313 36.6962 128.038 37.3962 129.538C38.1212 131.013 39.1087 132.15 40.3587 132.95C41.6337 133.75 43.0962 134.15 44.7462 134.15C46.0712 134.15 47.2587 133.875 48.3087 133.325C49.3587 132.775 50.1712 132.013 50.7462 131.037V133.85H56.3337ZM49.6212 128.413C48.8712 129.363 47.7962 129.837 46.3962 129.837C44.9712 129.837 43.8712 129.375 43.0962 128.45C42.3462 127.5 41.9712 126.138 41.9712 124.363C41.9712 122.588 42.3587 121.2 43.1337 120.2C43.9087 119.2 44.9962 118.7 46.3962 118.7C47.7962 118.7 48.8712 119.187 49.6212 120.162C50.3712 121.112 50.7462 122.488 50.7462 124.288C50.7462 126.088 50.3712 127.463 49.6212 128.413Z" fill="white"/>
<path fill-rule="evenodd" clip-rule="evenodd" d="M116.612 114.838V133.85H111.025V131.037C110.45 132.013 109.637 132.775 108.587 133.325C107.537 133.875 106.35 134.15 105.025 134.15C103.375 134.15 101.912 133.75 100.637 132.95C99.387 132.15 98.3995 131.013 97.6745 129.538C96.9745 128.038 96.6245 126.313 96.6245 124.363C96.6245 122.413 96.9745 120.675 97.6745 119.15C98.3995 117.625 99.3995 116.45 100.675 115.625C101.95 114.775 103.4 114.35 105.025 114.35C106.35 114.35 107.537 114.637 108.587 115.212C109.637 115.787 110.45 116.562 111.025 117.537V114.838H116.612ZM106.675 129.837C108.075 129.837 109.15 129.363 109.9 128.413C110.65 127.463 111.025 126.088 111.025 124.288C111.025 122.488 110.65 121.112 109.9 120.162C109.15 119.187 108.075 118.7 106.675 118.7C105.275 118.7 104.187 119.2 103.412 120.2C102.637 121.2 102.25 122.588 102.25 124.363C102.25 126.138 102.625 127.5 103.375 128.45C104.15 129.375 105.25 129.837 106.675 129.837Z" fill="white"/>
<path d="M139.67 122.338C139.67 117.013 137.42 114.35 132.92 114.35C131.545 114.35 130.308 114.65 129.208 115.25C128.133 115.85 127.258 116.712 126.583 117.838L126.208 114.838H120.883C121.083 116.438 121.183 118.25 121.183 120.275V133.85H126.845V123.2C126.845 121.85 127.22 120.775 127.97 119.975C128.72 119.175 129.72 118.775 130.97 118.775C132.02 118.775 132.783 119.088 133.258 119.713C133.758 120.312 134.008 121.275 134.008 122.6V133.85H139.67V122.338Z" fill="white"/>
<path d="M163.231 136.734H71.8213V138.351H163.231V136.734Z" fill="white"/>
</svg>
